<?xml version="1.0" encoding="UTF-8" standalone="no"?>
<svg
   xmlns:dc="http://purl.org/dc/elements/1.1/"
   xmlns:cc="http://creativecommons.org/ns#"
   xmlns:rdf="http://www.w3.org/1999/02/22-rdf-syntax-ns#"
   xmlns:svg="http://www.w3.org/2000/svg"
   xmlns="http://www.w3.org/2000/svg"
   viewBox="0 0 2101.3333 1372"
   height="1372"
   width="2101.3333"
   xml:space="preserve"
   id="svg2"
   version="1.1"><metadata
     id="metadata8"><rdf:RDF><cc:Work
         rdf:about=""><dc:format>image/svg+xml</dc:format><dc:type
           rdf:resource="http://purl.org/dc/dcmitype/StillImage" /></cc:Work></rdf:RDF></metadata><defs
     id="defs6"><clipPath
       id="clipPath30"
       clipPathUnits="userSpaceOnUse"><path
         id="path28"
         d="M 0,1029 H 1576 V 0 H 0 Z" /></clipPath><clipPath
       id="clipPath64"
       clipPathUnits="userSpaceOnUse"><path
         id="path62"
         d="M 0,1029 H 1576 V 0 H 0 Z" /></clipPath></defs><g
     transform="matrix(1.3333333,0,0,-1.3333333,0,1372)"
     id="g10"><text
       id="text14"
       style="font-variant:normal;font-weight:bold;font-stretch:normal;font-size:174.79589844px;font-family:Arial;-inkscape-font-specification:Arial-BoldMT;writing-mode:lr-tb;fill:#f53137;fill-opacity:1;fill-rule:nonzero;stroke:none"
       transform="matrix(0.84563997,0,0,-1,1085,123.041)"><tspan
         id="tspan12"
         y="0"
         x="0 97.186523 145.77979 204.16161 252.75487 359.55518">s.r.o.</tspan></text>
<g
       transform="translate(390.6104,95.4307)"
       id="g16"><path
         id="path18"
         style="fill:#f53137;fill-opacity:1;fill-rule:nonzero;stroke:none"
         d="M 0,0 V -40.498 H 1122.39 V 1.5 l -82.917,253.486 -42.023,0.001 87.815,-254.293 z" /></g><text
       id="text22"
       style="font-variant:normal;font-weight:normal;font-stretch:normal;font-size:309.41970825px;font-family:Arial;-inkscape-font-specification:ArialMT;writing-mode:lr-tb;fill:#000000;fill-opacity:1;fill-rule:nonzero;stroke:none"
       transform="matrix(0.8527702,0,0,-1,378.0005,127.4707)"><tspan
         id="tspan20"
         y="0"
         x="0 206.38293 372.54132 556.02722">STAV</tspan></text>
<g
       id="g24"><g
         clip-path="url(#clipPath30)"
         id="g26"><g
           transform="translate(521.4048,649.7505)"
           id="g32"><path
             id="path34"
             style="fill:#000000;fill-opacity:1;fill-rule:nonzero;stroke:none"
             d="m 0,0 c -10.848,26.676 -26.613,47.474 -47.291,62.391 -16.387,11.817 -34.374,18.936 -53.947,21.39 V 44.81 c 12.327,-2.325 23.748,-7.487 34.251,-15.518 14.778,-11.301 26.006,-27.216 33.684,-47.744 7.674,-20.528 11.513,-44.555 11.513,-72.078 0,-43.518 -8.977,-77.117 -26.928,-100.795 -17.954,-23.681 -40.82,-35.52 -68.605,-35.52 -27.279,0 -49.954,11.723 -68.033,35.175 -18.079,23.446 -27.119,55.546 -27.119,96.296 0,50.895 9.42,87.222 28.261,108.982 15.264,17.628 32.922,28.113 52.976,31.459 V 84.03 c -32.883,-3.449 -60.217,-19.082 -81.998,-46.895 -24.867,-31.755 -37.299,-75.694 -37.299,-131.817 0,-29.678 5.328,-57.818 15.985,-84.418 10.657,-26.605 26.324,-47.594 47.005,-62.968 20.678,-15.378 44.151,-23.065 70.413,-23.065 24.231,0 46.815,6.956 67.748,20.874 20.933,13.915 37.109,34.403 48.528,61.468 11.418,27.062 17.127,57.739 17.127,92.03 C 16.271,-56.935 10.847,-26.68 0,0" /></g><g
           transform="translate(1107.8262,482.4131)"
           id="g36"><path
             id="path38"
             style="fill:#000000;fill-opacity:1;fill-rule:nonzero;stroke:none"
             d="m 0,0 c -9.644,17.991 -19.857,32.983 -30.639,44.977 -5.076,5.536 -12.498,11.147 -22.265,16.837 26.766,4.458 46.558,14.914 59.374,31.369 12.813,16.452 19.22,36.673 19.22,60.661 0,18.604 -3.871,35.596 -11.608,50.974 -7.739,15.374 -18.078,26.099 -31.019,32.176 -12.941,6.072 -31.846,9.11 -56.71,9.11 h -123.699 v -37.361 h 41.52 v -0.004 h 83.701 c 20.678,0 35.807,-5.154 45.387,-15.453 9.578,-10.304 14.368,-23.451 14.368,-39.442 0,-10.92 -2.474,-21.029 -7.422,-30.33 -4.947,-9.306 -12.18,-16.07 -21.694,-20.298 -9.516,-4.231 -22.712,-6.342 -39.583,-6.342 h -79.358 v 81.436 h -36.919 V -92.029 h 36.919 V 58.124 h 42.819 c 9.515,0 16.366,-0.541 20.552,-1.614 5.71,-1.694 11.324,-4.693 16.843,-8.996 5.519,-4.306 11.766,-11.842 18.744,-22.604 6.977,-10.764 15.859,-26.294 26.643,-46.591 L 2.093,-92.029 h 46.434 z" /></g><g
           transform="translate(159.1665,688.6147)"
           id="g40"><path
             id="path42"
             style="fill:#000000;fill-opacity:1;fill-rule:nonzero;stroke:none"
             d="M 0,0 V 39.903 H -129.032 V 0 h 91.917 V -298.231 H -0.196 L -0.196,0 Z" /></g><path
           id="path44"
           style="fill:#000000;fill-opacity:1;fill-rule:nonzero;stroke:none"
           d="m 189.167,688.615 h 62.102 v 39.903 h -62.102 z" /><g
           transform="translate(1307.6455,728.5176)"
           id="g46"><path
             id="path48"
             style="fill:#000000;fill-opacity:1;fill-rule:nonzero;stroke:none"
             d="m 0,0 h -39.773 l -107.142,-338.134 h 39.203 l 30.639,102.409 h 87.311 l -11.481,36.443 h -65.173 l 30.639,99.179 c 6.47,21.372 11.48,42.902 15.034,64.582 4.311,-18.3 10.91,-41.671 19.792,-70.117 l 29.116,-93.644 h -0.052 l 12.89,-40.912 31.122,-97.94 h 42.058 z" /></g></g></g><g
       transform="translate(1262.25,764.1665)"
       id="g50"><path
         id="path52"
         style="fill:#f53137;fill-opacity:1;fill-rule:nonzero;stroke:none"
         d="m 0,0 32.583,0.083 -87.833,246.75 -550,-250 202.75,1.25 330.5,200.584 z" /></g><g
       transform="translate(679.5552,575.3169)"
       id="g54"><path
         id="path56"
         style="fill:#000000;fill-opacity:1;fill-rule:nonzero;stroke:none"
         d="m 0,0 -40.876,148.201 h -19.732 -35.475 v -0.44 l -0.112,0.19 v -338.134 h 35.587 V 70.183 87.925 97.027 L -33.411,0 Z" /></g><g
       id="g58"><g
         clip-path="url(#clipPath64)"
         id="g60"><g
           transform="translate(750.3726,549.8672)"
           id="g66"><path
             id="path68"
             style="fill:#000000;fill-opacity:1;fill-rule:nonzero;stroke:none"
             d="m 0,0 -17.494,-61.613 c -6.726,-23.836 -11.673,-41.903 -14.843,-54.203 -2.792,11.071 -7.232,27.753 -13.322,50.051 L -63.798,0 h -33.296 l 46.107,-164.483 h 33.303 L 29.434,0 Z" /></g><g
           transform="translate(799.6758,723.5176)"
           id="g70"><path
             id="path72"
             style="fill:#000000;fill-opacity:1;fill-rule:nonzero;stroke:none"
             d="m 0,0 -42.078,-148.201 h 29.498 l 26.662,93.076 V -338.134 H 49.669 V 0 Z" /></g></g></g></g></svg>